<svg xmlns="http://www.w3.org/2000/svg" width="17" height="15" viewBox="0 0 17 15">
  <path fill="#101131" d="M20.5934139,33 L17.4214278,33 L17.4214278,22.8133933 L20.5934139,22.8133933 L20.5934139,33 Z M18.9213241,21.5400675 L18.898667,21.5400675 C18.4076421,21.5766828 17.9236044,21.4067844 17.563184,21.0713096 C17.2027636,20.7358348 16.9986435,20.2652044 17.0000068,19.7728181 C17.0000068,18.7668454 17.7658149,18.0055687 18.9439811,18.0055687 C19.4373431,17.9664293 19.924665,18.1348926 20.2885259,18.4703672 C20.6523868,18.8058418 20.859792,19.277907 20.860767,19.7728181 C20.860767,20.7606652 20.1130845,21.5400675 18.9213241,21.5400675 Z M33.313078,33 L29.6879511,33 L29.6879511,27.7299717 C29.6879511,26.3705491 29.1260564,25.4098905 27.8753876,25.4098905 C27.0925296,25.4098261 26.3980954,25.9123772 26.1534523,26.6560279 C26.07767,26.9254797 26.0515666,27.2064753 26.0764184,27.4852756 L26.0764184,33 L22.5328568,33 C22.5328568,33 22.5781709,23.6652981 22.5328568,22.8179247 L26.1036068,22.8179247 L26.1036068,24.4311062 C26.316583,23.7332693 27.4630294,22.7363594 29.2755929,22.7363594 C31.5412972,22.7363594 33.313078,24.2000044 33.313078,27.3538648 L33.313078,33 Z" transform="translate(-17 -18)"/>
</svg>
